<svg width="24" height="24" viewBox="0 0 24 24" fill="none" xmlns="http://www.w3.org/2000/svg">
<g clip-path="url(#clip0_646_23499)">
<path d="M8.10882 11.7357C7.39456 11.7357 6.70391 11.4457 6.16335 10.9195C5.63772 10.4063 5.31672 9.72182 5.26009 8.99284C5.19964 8.21523 5.46055 7.50015 5.99451 6.97901C6.52847 6.45786 7.27505 6.17676 8.10882 6.17676C8.93669 6.17676 9.68536 6.46291 10.2176 6.9828C10.755 7.50773 11.0166 8.22155 10.9562 8.99253C10.8981 9.72245 10.5775 10.4066 10.0529 10.9192C9.51373 11.4457 8.82344 11.7357 8.10882 11.7357ZM12.6887 17.2945H3.52931C3.38205 17.2953 3.23657 17.2653 3.10407 17.2068C2.97157 17.1484 2.85557 17.0631 2.76502 16.9575C2.66896 16.8431 2.60263 16.7104 2.57098 16.5693C2.53934 16.4282 2.5432 16.2825 2.58228 16.143C2.8748 15.0751 3.59949 14.1895 4.67784 13.5821C5.63494 13.0433 6.8533 12.7464 8.10882 12.7464C9.38902 12.7464 10.5754 13.0306 11.5381 13.5691C12.6189 14.1734 13.3446 15.064 13.6357 16.1449C13.6743 16.2845 13.6778 16.4302 13.6458 16.5712C13.6138 16.7122 13.5471 16.8448 13.4509 16.9591C13.3604 17.0642 13.2447 17.1491 13.1126 17.2072C12.9805 17.2654 12.8355 17.2952 12.6887 17.2945Z" fill="#888888"/>
<rect x="13.5747" y="8.01416" width="6.61498" height="1.32302" rx="0.661509" fill="#888888"/>
<rect x="15.2285" y="14.6848" width="4.96123" height="1.32302" rx="0.661509" fill="#888888"/>
<rect x="14.4019" y="11.3499" width="5.78811" height="1.32302" rx="0.661509" fill="#888888"/>
</g>
<defs>
<clipPath id="clip0_646_23499">
<rect width="18.9" height="11.1178" fill="white" transform="translate(2.5498 6.17676)"/>
</clipPath>
</defs>
</svg>
