<svg width="24" height="24" viewBox="0 0 24 24" fill="none" xmlns="http://www.w3.org/2000/svg">
<path d="M11.9999 9.5C11.5148 9.5 11.0407 9.64384 10.6374 9.91332C10.2341 10.1828 9.91968 10.5658 9.73405 11.014C9.54843 11.4621 9.49986 11.9552 9.59449 12.431C9.68912 12.9067 9.9227 13.3437 10.2657 13.6867C10.6087 14.0297 11.0457 14.2632 11.5214 14.3579C11.9972 14.4525 12.4903 14.4039 12.9384 14.2183C13.3866 14.0327 13.7696 13.7183 14.0391 13.315C14.3086 12.9117 14.4524 12.4376 14.4524 11.9525C14.4494 11.303 14.1901 10.6809 13.7308 10.2216C13.2715 9.7623 12.6494 9.50296 11.9999 9.5Z" fill="#36AE22"/>
<path d="M12 5C6.88125 5 3 9.4325 3 11.9525C3 14.4725 6.88125 18.905 12 18.905C17.1188 18.905 21 14.4725 21 11.9525C21 9.4325 17.1188 5 12 5ZM12 15.8113C11.2368 15.8113 10.4908 15.5849 9.85619 15.1609C9.22162 14.7369 8.72704 14.1343 8.43498 13.4292C8.14292 12.7241 8.0665 11.9482 8.21539 11.1997C8.36428 10.4512 8.7318 9.76361 9.27145 9.22395C9.81111 8.6843 10.4987 8.31679 11.2472 8.16789C11.9957 8.019 12.7716 8.09542 13.4767 8.38748C14.1818 8.67954 14.7844 9.17413 15.2084 9.80869C15.6324 10.4433 15.8588 11.1893 15.8588 11.9525C15.8558 12.975 15.4483 13.9548 14.7253 14.6778C14.0023 15.4008 13.0225 15.8083 12 15.8113Z" fill="#36AE22"/>
</svg>
