<svg width="24" height="24" viewBox="0 0 24 24" fill="none" xmlns="http://www.w3.org/2000/svg">
<path d="M19.712 11.36C19.712 9.62286 19.712 6.99429 18.5691 5.55429C17.392 4 14.3863 4 12.7748 4H11.9863C10.2606 4 7.41487 4 6.1463 5.55429C4.87773 7.10857 5.00344 9.61143 5.00344 11.3371V12.6629C5.00344 14.3886 5.00344 17.0057 6.1463 18.4457C7.28915 19.8857 9.6663 20 11.4034 20H12.7748C14.3863 20 17.3463 20 18.6148 18.4457C19.8834 16.8914 19.7577 14.3771 19.7577 12.64L19.712 11.36ZM15.4948 16.1143H9.27772C9.19571 16.1143 9.11451 16.0979 9.03888 16.0663C8.96326 16.0345 8.89471 15.988 8.83725 15.9295C8.77979 15.871 8.73457 15.8016 8.70424 15.7254C8.67391 15.6491 8.65906 15.5678 8.66058 15.4857C8.66056 15.3209 8.72521 15.1627 8.84063 15.0453C8.95605 14.9277 9.11301 14.8601 9.27772 14.8571H15.4948C15.6595 14.8601 15.8166 14.9277 15.932 15.0453C16.0474 15.1627 16.112 15.3209 16.112 15.4857C16.1135 15.5678 16.0987 15.6491 16.0683 15.7254C16.038 15.8016 15.9928 15.871 15.9353 15.9295C15.8779 15.988 15.8094 16.0345 15.7337 16.0663C15.658 16.0979 15.5769 16.1143 15.4948 16.1143ZM15.4948 12.6857H9.27772C9.11102 12.6857 8.95114 12.6195 8.83326 12.5016C8.71538 12.3838 8.64915 12.2239 8.64915 12.0571C8.64915 11.8904 8.71538 11.7305 8.83326 11.6127C8.95114 11.4947 9.11102 11.4286 9.27772 11.4286H15.4948C15.6616 11.4286 15.8215 11.4947 15.9393 11.6127C16.0572 11.7305 16.1234 11.8904 16.1234 12.0571C16.1234 12.2239 16.0572 12.3838 15.9393 12.5016C15.8215 12.6195 15.6616 12.6857 15.4948 12.6857ZM15.4948 9.2H9.27772C9.11301 9.19701 8.95605 9.12946 8.84063 9.01191C8.72521 8.89434 8.66056 8.73617 8.66058 8.57143C8.65906 8.48943 8.67391 8.40794 8.70424 8.33175C8.73457 8.25554 8.77979 8.18616 8.83725 8.12763C8.89471 8.06911 8.96326 8.02263 9.03888 7.9909C9.11451 7.95918 9.19571 7.94285 9.27772 7.94286H15.4948C15.5769 7.94285 15.658 7.95918 15.7337 7.9909C15.8094 8.02263 15.8779 8.06911 15.9353 8.12763C15.9928 8.18616 16.038 8.25554 16.0683 8.33175C16.0987 8.40794 16.1135 8.48943 16.112 8.57143C16.0979 8.72609 16.0271 8.87006 15.9131 8.97557C15.7992 9.08109 15.6502 9.14067 15.4948 9.14286V9.2Z" fill="#5692F6"/>
</svg>
