<svg width="32" height="32" viewBox="0 0 32 32" fill="none" xmlns="http://www.w3.org/2000/svg">
<circle cx="16" cy="16" r="13" fill="#6AD957" fill-opacity="0.2"/>
<path d="M15.7668 13.8828C15.3481 13.8828 14.939 14.0069 14.5909 14.2395C14.2429 14.4721 13.9716 14.8026 13.8114 15.1894C13.6512 15.5761 13.6093 16.0016 13.6909 16.4123C13.7726 16.8228 13.9742 17.1999 14.2702 17.4959C14.5662 17.7919 14.9433 17.9934 15.3538 18.0752C15.7644 18.1568 16.19 18.1149 16.5767 17.9547C16.9635 17.7945 17.294 17.5232 17.5266 17.1752C17.7592 16.8271 17.8833 16.418 17.8833 15.9993C17.8807 15.4388 17.6569 14.9019 17.2605 14.5056C16.8642 14.1092 16.3273 13.8854 15.7668 13.8828Z" fill="#6AD957"/>
<path d="M15.767 10C11.3495 10 8 13.8252 8 16C8 18.1748 11.3495 22 15.767 22C20.1845 22 23.534 18.1748 23.534 16C23.534 13.8252 20.1845 10 15.767 10ZM15.767 19.3301C15.1083 19.3301 14.4646 19.1348 13.9169 18.7688C13.3693 18.4029 12.9424 17.8829 12.6904 17.2744C12.4383 16.6659 12.3724 15.9963 12.5009 15.3503C12.6294 14.7044 12.9465 14.111 13.4123 13.6453C13.878 13.1795 14.4714 12.8624 15.1173 12.7339C15.7633 12.6054 16.4329 12.6713 17.0414 12.9234C17.6499 13.1754 18.1699 13.6023 18.5358 14.1499C18.9017 14.6976 19.0971 15.3414 19.0971 16C19.0945 16.8824 18.7429 17.728 18.1189 18.3519C17.495 18.9759 16.6494 19.3276 15.767 19.3301Z" fill="#6AD957"/>
</svg>
