<svg width="24" height="24" viewBox="0 0 24 24" fill="none" xmlns="http://www.w3.org/2000/svg">
<path fill-rule="evenodd" clip-rule="evenodd" d="M12 21C16.9706 21 21 16.9706 21 12C21 7.02944 16.9706 3 12 3C7.02944 3 3 7.02944 3 12C3 16.9706 7.02944 21 12 21ZM10.9165 7L11.1929 7.55271L11.7456 7.6218L11.2846 8.01312L11.4692 8.65814L10.9165 8.29003L10.3638 8.65814L10.5484 8.01312L10.0875 7.6218L10.6402 7.55271L10.9165 7ZM15.3382 12.5271L15.7992 13.4479L16.72 13.5635L15.9523 14.2162L16.259 15.2907L15.3382 14.6766L14.4174 15.2907L14.7242 14.2162L13.9564 13.5635L14.8773 13.4479L15.3382 12.5271ZM8.42931 8.10542L8.79797 8.84219L9.53474 8.93449L8.92068 9.45625L9.16608 10.3163L8.42931 9.82491L7.69255 10.3163L7.93795 9.45625L7.32389 8.93449L8.06066 8.84219L8.42931 8.10542ZM7.32389 15.5195C7.11496 15.3106 7 15.0331 7 14.738C7 14.4428 7.11496 14.1654 7.32389 13.9564L13.7276 7.55271C14.1455 7.13486 14.8728 7.13486 15.2907 7.55271L16.1673 8.42931C16.3762 8.63824 16.4912 8.9157 16.4912 9.21085C16.4912 9.506 16.3762 9.78346 16.1673 9.99238L9.76356 16.3961C9.55464 16.605 9.27717 16.72 8.98203 16.72C8.68688 16.72 8.40942 16.605 8.20049 16.3961L7.32389 15.5195ZM15.3858 9.21085L14.5092 8.33425L12.5271 10.3163L13.4037 11.1929L15.3858 9.21085Z" fill="#888888"/>
</svg>
